<?xml version="1.0" encoding="utf-8"?>
<svg version="1.1" width="299" height="299" xmlns="http://www.w3.org/2000/svg">
  <path d="M0 0 C2.36107246 1.30219137 4.65360711 2.69245302 6.9375 4.125 C8.02675781 4.79273437 9.11601562 5.46046875 10.23828125 6.1484375 C12.06055957 7.2779699 13.87653851 8.41579125 15.68481445 9.56762695 C22.86962217 14.13946962 30.1716951 18.51304331 37.48590088 22.87365723 C38.94945953 23.74706144 40.41183079 24.62245855 41.87298584 25.49987793 C43.94878234 26.74591078 46.02849884 27.98512987 48.109375 29.22265625 C48.73794403 29.60138382 49.36651306 29.98011139 50.01412964 30.37031555 C54.22683438 32.94014819 54.22683438 32.94014819 58.9375 34.125 C61.19934942 33.05528513 63.2832823 31.9395467 65.4375 30.6875 C71.86037026 27.23350172 77.58828049 25.51920539 84.9375 27.125 C90.97173258 29.47309838 95.72692402 33.09461244 100.625 37.25 C102.03004649 38.4181158 103.43631227 39.58476646 104.84375 40.75 C105.5346875 41.32363281 106.225625 41.89726562 106.9375 42.48828125 C109.77983178 44.81433011 112.69572325 47.03525787 115.625 49.25 C120.13548242 52.7087864 124.60759439 56.20456327 129 59.8125 C129.5364917 60.23998535 130.0729834 60.6674707 130.62573242 61.10791016 C135.23714478 64.95112065 138.27427214 69.00266103 139.5390625 74.95703125 C139.61980505 85.22479266 137.15367994 94.70993704 134.72265625 104.62890625 C132.51952675 113.68161047 130.70159252 122.80946308 128.88912964 131.94689941 C122.60105848 163.62090069 122.60105848 163.62090069 115.9375 169.125 C108.68696622 173.75198897 102.28081753 173.70896053 93.82421875 173.65625 C92.44627103 173.65895332 91.06832519 173.66284267 89.69038391 173.66784668 C86.80471604 173.67372418 83.91954525 173.66525096 81.03393555 173.64648438 C77.39399412 173.62392796 73.75523773 173.63703154 70.11533928 173.66027832 C34.39366947 173.85308474 34.39366947 173.85308474 22.9375 168.125 C22.83953125 168.8571875 22.7415625 169.589375 22.640625 170.34375 C20.261076 179.75618827 9.81618413 188.05059328 1.9375 193.125 C-11.55241868 200.28291604 -26.08442505 202.75894622 -40.9375 198.5 C-56.70036261 192.8339959 -67.21794824 183.90525751 -74.60229492 168.95947266 C-81.5820524 153.94155959 -79.59785989 139.11560214 -76.25 123.375 C-75.98960938 122.1487793 -75.72921875 120.92255859 -75.4609375 119.65917969 C-73.15345957 109.42045678 -73.15345957 109.42045678 -70.0625 105.125 C-67.6171875 104.58984375 -67.6171875 104.58984375 -65.0625 105.125 C-63.0078125 106.62890625 -63.0078125 106.62890625 -61.1875 108.6875 C-60.26324219 109.67943359 -60.26324219 109.67943359 -59.3203125 110.69140625 C-56.79535481 115.57665047 -59.29460156 121.23580357 -60.57397461 126.32836914 C-63.8333114 139.54334078 -65.58606039 153.02428366 -58.80859375 165.41796875 C-53.135966 174.64564932 -46.27957882 179.749553 -36.0625 183.125 C-35.0725 183.455 -34.0825 183.785 -33.0625 184.125 C-19.57525869 184.86191407 -9.52119485 183.19727894 1.05859375 174.3515625 C4.322209 171.24400369 6.72206242 168.58160446 7.9375 164.125 C7.050625 163.58875 6.16375 163.0525 5.25 162.5 C0.21007026 159.12813211 -3.12718639 154.9223775 -5.0625 149.125 C-5.97047761 141.96675791 -5.24445551 137.00587493 -1.0625 131.125 C-1.64 130.91875 -2.2175 130.7125 -2.8125 130.5 C-7.59973638 127.57446666 -9.7684387 122.40908365 -11.0625 117.125 C-11.57335347 111.50561183 -10.48331619 108.06749972 -8.0625 103.125 C-9.54786255 103.17370239 -9.54786255 103.17370239 -11.06323242 103.22338867 C-15.17589109 103.21893991 -19.05406398 102.46284634 -23.05078125 101.55078125 C-23.79402145 101.38507126 -24.53726166 101.21936127 -25.30302429 101.04862976 C-26.86785816 100.69689422 -28.43180277 100.34118109 -29.99487305 99.98168945 C-32.35481278 99.44211558 -34.71887218 98.92456338 -37.08398438 98.40820312 C-49.38008234 95.65164736 -59.62406991 92.67837513 -67.3125 82 C-70.64324615 76.5280599 -70.66221367 71.37915686 -70.0625 65.125 C-67.95526152 57.68619429 -62.72563549 53.30433377 -56.28515625 49.47265625 C-52.55690547 47.91356956 -49.90244283 47.79012238 -45.875 47.875 C-43.90273437 47.90787109 -43.90273437 47.90787109 -41.890625 47.94140625 C-38.59867525 48.09928547 -35.39293129 48.40629066 -32.125 48.8125 C-26.9814599 49.38229336 -23.71374363 48.31898284 -19.0625 46.125 C-19.8359375 45.72410156 -20.609375 45.32320312 -21.40625 44.91015625 C-29.60760929 40.43391931 -36.1679424 35.67290206 -40.5625 27.25 C-41.59266248 20.81148452 -42.40652998 14.65066486 -39 8.8125 C-29.67745279 -4.04891782 -14.14370434 -6.90928086 0 0 Z " fill="#2776BA" transform="translate(126.0625,97.875)"/>
  <path d="M0 0 C5.61620994 2.53891844 10.77231783 5.75000489 16 9 C17.34784553 9.81824213 18.69679808 10.63466363 20.046875 11.44921875 C22.94418391 13.20341813 25.83213872 14.97190862 28.71484375 16.75 C34.76375615 20.47755415 40.83860771 24.16217899 46.91320801 27.84765625 C48.78187181 28.98141718 50.65024493 30.11565575 52.51855469 31.25 C57.25810166 34.12693878 57.25810166 34.12693878 62 37 C62.89775146 37.57097412 63.79550293 38.14194824 64.72045898 38.73022461 C66.92251533 40.20940103 66.92251533 40.20940103 69.453125 39.94140625 C72.67118308 38.75190932 75.00763366 36.99427476 77.75 34.9375 C82.27824099 31.83893706 85.36683849 30.11242504 90.8671875 30.328125 C96.37094296 32.06190877 100.90583831 36.39097883 105.375 39.9375 C105.96861328 40.40623535 106.56222656 40.8749707 107.17382812 41.35791016 C113.91069877 46.69388948 120.5888236 52.10450079 127.234375 57.55371094 C128.40763787 58.51477416 129.58471518 59.47120023 130.765625 60.42285156 C135.82075012 64.53615873 135.82075012 64.53615873 136.22290039 67.8203125 C136.44827189 76.16347719 134.39865733 83.95975089 132.4375 92 C131.69644237 95.10650924 130.96437752 98.21509494 130.234375 101.32421875 C130.04759689 102.11656418 129.86081879 102.90890961 129.66838074 103.7252655 C128.35449613 109.34683469 127.15144814 114.98444073 126.015625 120.64453125 C125.85977432 121.41965057 125.70392365 122.1947699 125.54335022 122.99337769 C124.79889188 126.71265181 124.06733111 130.43410767 123.34741211 134.15820312 C123.07948108 135.50785555 122.81134424 136.85746714 122.54296875 138.20703125 C122.31633545 139.3772583 122.08970215 140.54748535 121.85620117 141.75317383 C120.67138298 146.24615847 119.58679956 149.84755344 115.73165894 152.64743042 C112.73885168 154.12930651 110.8942022 154.38477157 107.57739258 154.40405273 C105.98336357 154.42307899 105.98336357 154.42307899 104.35713196 154.44248962 C103.21447372 154.43955399 102.07181549 154.43661835 100.89453125 154.43359375 C99.7013176 154.4388356 98.50810394 154.44407745 97.2787323 154.44947815 C94.74775976 154.45590181 92.21675739 154.45455696 89.68579102 154.44604492 C85.87134144 154.43762981 82.05843862 154.46613945 78.24414062 154.49804688 C48.16393747 154.58196873 48.16393747 154.58196873 37 149 C39.70988867 134.75867016 39.70988867 134.75867016 41.4375 128.75 C46.7055331 109.72343366 51.51669543 88.77777426 43 70 C42.67 69.01 42.34 68.02 42 67 C43.98 67 45.96 67 48 67 C48.29469479 64.07735486 48.50993288 61.84805733 48 59 C45.89635234 56.98966926 44.48310903 55.97001204 41.984375 54.66015625 C41.03203476 54.11345528 41.03203476 54.11345528 40.06045532 53.55570984 C37.97125239 52.36379824 35.86145853 51.21444214 33.75 50.0625 C32.29834625 49.24008035 30.84865308 48.41419108 29.40087891 47.58496094 C26.42081762 45.88109846 23.43384018 44.1905488 20.44042969 42.51025391 C14.29521505 39.04991161 8.2244784 35.46870407 2.18225098 31.83200073 C0.41578542 30.77441822 -1.3601782 29.73442429 -3.13769531 28.69555664 C-16.86619652 20.47789269 -16.86619652 20.47789269 -18.52636719 13.92114258 C-18.90040338 10.70794299 -18.45157204 8.71019966 -16.7109375 5.97265625 C-11.80221105 0.06042168 -7.67911067 -1.43864232 0 0 Z " fill="#FDFEFE" transform="translate(116,106)"/>
  <path d="M0 0 C2.36107246 1.30219137 4.65360711 2.69245302 6.9375 4.125 C8.02675781 4.79273437 9.11601562 5.46046875 10.23828125 6.1484375 C12.06055957 7.2779699 13.87653851 8.41579125 15.68481445 9.56762695 C22.86962217 14.13946962 30.1716951 18.51304331 37.48590088 22.87365723 C38.94945953 23.74706144 40.41183079 24.62245855 41.87298584 25.49987793 C43.94878234 26.74591078 46.02849884 27.98512987 48.109375 29.22265625 C48.73794403 29.60138382 49.36651306 29.98011139 50.01412964 30.37031555 C54.22683438 32.94014819 54.22683438 32.94014819 58.9375 34.125 C61.19934942 33.05528513 63.2832823 31.9395467 65.4375 30.6875 C71.86037026 27.23350172 77.58828049 25.51920539 84.9375 27.125 C90.97173258 29.47309838 95.72692402 33.09461244 100.625 37.25 C102.03004649 38.4181158 103.43631227 39.58476646 104.84375 40.75 C105.5346875 41.32363281 106.225625 41.89726562 106.9375 42.48828125 C109.77983178 44.81433011 112.69572325 47.03525787 115.625 49.25 C120.13548242 52.7087864 124.60759439 56.20456327 129 59.8125 C129.5364917 60.23998535 130.0729834 60.6674707 130.62573242 61.10791016 C135.23714478 64.95112065 138.27427214 69.00266103 139.5390625 74.95703125 C139.61980505 85.22479266 137.15367994 94.70993704 134.72265625 104.62890625 C132.51952675 113.68161047 130.70159252 122.80946308 128.88912964 131.94689941 C122.60105848 163.62090069 122.60105848 163.62090069 115.9375 169.125 C108.68696622 173.75198897 102.28081753 173.70896053 93.82421875 173.65625 C92.44627103 173.65895332 91.06832519 173.66284267 89.69038391 173.66784668 C86.80471604 173.67372418 83.91954525 173.66525096 81.03393555 173.64648438 C77.39399949 173.62392799 73.75524778 173.63705232 70.11535454 173.6602478 C37.65161099 173.83592954 37.65161099 173.83592954 24.9375 169.125 C23.77792793 165.64628379 24.16293349 164.78280355 25.375 161.4375 C25.66246094 160.62925781 25.94992188 159.82101562 26.24609375 158.98828125 C26.47425781 158.37339844 26.70242187 157.75851563 26.9375 157.125 C29.52111841 157.60266899 32.10439338 158.08207792 34.6875 158.5625 C35.41710937 158.69720703 36.14671875 158.83191406 36.8984375 158.97070312 C42.63876288 160.04049104 42.63876288 160.04049104 44.83595276 160.66204834 C47.41487743 161.23016189 49.81157468 161.26755686 52.45288086 161.28613281 C53.55760239 161.29574036 54.66232391 161.3053479 55.80052185 161.31524658 C56.98912308 161.31949646 58.1777243 161.32374634 59.40234375 161.328125 C60.62780411 161.33382507 61.85326447 161.33952515 63.11585999 161.34539795 C65.70735817 161.35484216 68.29886833 161.36137963 70.89038086 161.36523438 C74.85616921 161.37495385 78.82144234 161.40598933 82.78710938 161.4375 C85.30468442 161.44402883 87.82226317 161.44927977 90.33984375 161.453125 C91.52642075 161.4654718 92.71299774 161.4778186 93.93553162 161.49053955 C95.0434053 161.48753845 96.15127899 161.48453735 97.29272461 161.48144531 C98.26439072 161.48509094 99.23605682 161.48873657 100.23716736 161.49249268 C103.53037469 161.04431472 105.32870801 160.18041506 107.9375 158.125 C109.62142816 154.9036191 110.37446767 151.59915748 111.11083984 148.05371094 C111.31800629 147.06788025 111.52517273 146.08204956 111.73861694 145.06634521 C111.95635773 144.00804504 112.17409851 142.94974487 112.3984375 141.859375 C112.6302774 140.75257385 112.86211731 139.64577271 113.10098267 138.50543213 C113.84244433 134.96283427 114.57785863 131.41901794 115.3125 127.875 C116.27585897 123.24420653 117.24226085 118.61405891 118.2109375 113.984375 C118.44411682 112.86697937 118.67729614 111.74958374 118.9175415 110.59832764 C120.54476239 102.85100154 122.30708159 95.14852639 124.21142578 87.46484375 C125.15821079 83.10976006 126.05763445 78.50670239 124.9375 74.125 C122.14070965 69.93650536 118.53451915 67.01407458 114.5625 64 C113.31234658 63.03535504 112.06235123 62.0705052 110.8125 61.10546875 C110.173125 60.61481934 109.53375 60.12416992 108.875 59.61865234 C106.35398102 57.6751551 103.85571865 55.7036508 101.35791016 53.73046875 C90.26921288 43.70749554 90.26921288 43.70749554 76.6484375 39.5625 C71.9586402 40.53559915 68.51094207 43.44491845 64.734375 46.27734375 C61.81749626 48.20427621 60.39003684 48.89895585 56.9375 49.125 C54.01269531 47.82421875 54.01269531 47.82421875 50.765625 45.8125 C50.17435822 45.45207108 49.58309143 45.09164215 48.97390747 44.72029114 C47.0365389 43.53520487 45.11238882 42.33023013 43.1875 41.125 C41.84419042 40.29886236 40.49994094 39.47425119 39.15478516 38.65112305 C36.41004744 36.96963165 33.66973661 35.2812646 30.93261719 33.58740234 C25.09365201 29.97994819 19.20275806 26.46040765 13.3125 22.9375 C11.85118652 22.05868164 11.85118652 22.05868164 10.36035156 21.16210938 C8.49821451 20.04290411 6.63385836 18.92738103 4.76708984 17.81591797 C2.75493495 16.61348615 0.75084759 15.39750912 -1.24755859 14.17236328 C-2.30023926 13.53669434 -3.35291992 12.90102539 -4.4375 12.24609375 C-5.38625 11.66657959 -6.335 11.08706543 -7.3125 10.48999023 C-11.57748668 8.37302108 -15.45399295 7.9298987 -20.0625 9.125 C-23.16587028 10.85681967 -25.44687776 12.89375553 -27.0625 16.125 C-27.76238264 21.98599854 -27.76238264 21.98599854 -24.9362793 27.00756836 C-22.20197202 30.18952235 -19.20248706 32.1645324 -15.55859375 34.26953125 C-14.9305484 34.6369191 -14.30250305 35.00430695 -13.65542603 35.38282776 C-12.30798749 36.16946456 -10.95759062 36.95105237 -9.60452271 37.72796631 C-7.47282422 38.95311875 -5.35052863 40.19323209 -3.23022461 41.43798828 C1.86268205 44.42587265 6.96631467 47.39525393 12.06921387 50.36602783 C16.0649325 52.69490308 20.0511035 55.03873012 24.02487183 57.40487671 C25.25318009 58.1319339 26.48521744 58.85272947 27.72097778 59.56704712 C29.43592414 60.55851734 31.13824646 61.57172802 32.83984375 62.5859375 C34.28605103 63.43357666 34.28605103 63.43357666 35.76147461 64.29833984 C37.9375 66.125 37.9375 66.125 38.78344727 68.70166016 C38.93674333 71.11309707 38.69791995 72.84374015 37.9375 75.125 C36.25 75.9375 36.25 75.9375 33.9375 76.125 C31.27499588 73.91892515 29.20629831 71.44126467 26.96875 68.80859375 C17.37336816 57.74349673 7.44213289 51.48150216 -6.93261719 48.78515625 C-20.41436917 46.24123112 -30.88297348 41.70909384 -39.0625 30.125 C-41.7795334 24.91735265 -41.84849349 18.88076482 -41.0625 13.125 C-38.52236791 6.51385263 -33.10366221 1.17754109 -26.83984375 -2.00390625 C-18.08897876 -4.74855167 -8.16897122 -3.99058939 0 0 Z " fill="#575759" transform="translate(126.0625,97.875)"/>
  <path d="M0 0 C1.28003906 0.95519531 1.28003906 0.95519531 2.5859375 1.9296875 C11.39793664 9.48690359 17.12445221 21.97260921 18.37109375 33.40234375 C18.66629541 49.11749104 14.53289256 61.13339702 4 73 C3.2059375 73.91523437 2.411875 74.83046875 1.59375 75.7734375 C-2.74401198 80.47267964 -2.74401198 80.47267964 -5 82 C-7.765625 81.73046875 -7.765625 81.73046875 -10 81 C-11.48723671 76.53828986 -12.38165879 73.53467502 -11 69 C-9.546875 67.04296875 -9.546875 67.04296875 -7.75 65.1875 C0.67494135 55.96840434 4.68574037 46.82294526 4.34765625 34.2109375 C3.46907288 26.09638099 -0.32027608 18.82984878 -6 13 C-15.12378705 5.7461057 -23.4173825 3.92774679 -34.88769531 4.72753906 C-46.0076347 6.16187244 -53.62808564 14.78121126 -60.56567383 22.8125 C-63.61145427 26.33333417 -66.70263242 29.76321927 -69.97265625 33.078125 C-79.73830581 43.00005316 -88.91775566 52.4303141 -89.25 67.1875 C-89.08644716 77.04973644 -85.18929877 85.75226318 -78.265625 92.75390625 C-75.46734556 95.22406885 -72.85885072 97.07699052 -69.5625 98.875 C-67 101 -67 101 -66.5234375 102.91796875 C-66.40226394 105.94179984 -66.66720977 108.38988457 -68.125 111.0625 C-70.98054011 112.49027006 -72.93726729 111.71278143 -76 111 C-89.33209484 104.4572223 -95.5241517 94.60714734 -101.140625 81.296875 C-103.93517975 70.57594679 -103.68317529 56.47422972 -98.59375 46.578125 C-98.0678125 45.72734375 -97.541875 44.8765625 -97 44 C-96.4534375 43.10796875 -95.906875 42.2159375 -95.34375 41.296875 C-90.699386 34.40904703 -84.95000725 28.75359175 -79.02734375 22.98828125 C-76.73186968 20.7472453 -74.57099533 18.45317402 -72.5 16 C-71.33977348 14.66105888 -70.17210947 13.32855119 -69 12 C-68.57348145 11.5153125 -68.14696289 11.030625 -67.70751953 10.53125 C-49.49739248 -9.82592259 -23.52010987 -17.78349771 0 0 Z " fill="#2775BA" transform="translate(139,14)"/>
  <path d="M0 0 C3.62915915 2.41694517 4.06420434 6.21488276 4.89453125 10.26171875 C6.74074138 12.10792888 9.85048913 11.52452847 12.33203125 11.63671875 C21.00183085 12.2011818 28.26506642 14.04543556 35.89453125 18.26171875 C31.46645598 19.6166981 27.75045178 18.62462435 23.33203125 17.64453125 C22.50372803 17.46791962 21.6754248 17.29130798 20.82202148 17.10934448 C18.17767174 16.54338762 15.53617729 15.9651498 12.89453125 15.38671875 C11.11605587 15.00441452 9.33741159 14.62289511 7.55859375 14.2421875 C-5.03033698 11.5380579 -5.03033698 11.5380579 -8.21142578 10.72042847 C-12.91190751 9.58204002 -17.59774677 9.62013493 -22.04296875 11.51171875 C-24.33564365 13.45701867 -25.24969249 14.3831986 -26.10546875 17.26171875 C-26.43994249 21.47608793 -26.54421692 24.16484833 -24.98046875 28.07421875 C-20.09535593 33.77351704 -12.21878618 34.56996938 -5.234375 36.07421875 C-4.07985336 36.32921143 -2.92533173 36.5842041 -1.73582458 36.84692383 C1.95186817 37.65931378 5.64189915 38.46049077 9.33203125 39.26171875 C11.77945058 39.80008298 14.22671793 40.33913861 16.67382812 40.87890625 C27.55681216 43.27170592 38.43906055 45.64018386 49.38696289 47.71875 C51.89453125 48.26171875 51.89453125 48.26171875 53.89453125 49.26171875 C53.89453125 51.90171875 53.89453125 54.54171875 53.89453125 57.26171875 C52.86972656 57.143125 51.84492188 57.02453125 50.7890625 56.90234375 C49.4284966 56.77097877 48.06781242 56.64083473 46.70703125 56.51171875 C46.03349609 56.43050781 45.35996094 56.34929687 44.66601562 56.265625 C41.01356132 55.9449217 39.13546937 56.11599783 35.96875 58.03125 C33.13210203 61.08158143 32.89453125 63.13802981 32.89453125 67.26171875 C34.30153529 71.13097986 35.51710906 72.06944707 39.20703125 73.94921875 C42.42504565 75.0946137 45.63847021 76.22930915 48.89453125 77.26171875 C47.80611416 84.5178327 47.80611416 84.5178327 45.23828125 86.61328125 C43.48673901 87.55365844 41.6918418 88.41208103 39.89453125 89.26171875 C38.33976435 92.37125254 38.60808688 94.82438636 38.89453125 98.26171875 C39.61640625 99.18984375 40.33828125 100.11796875 41.08203125 101.07421875 C42.89453125 104.26171875 42.89453125 104.26171875 42.4921875 106.859375 C41.72364585 109.37749993 40.87876074 111.82044364 39.89453125 114.26171875 C33.66313711 113.04583697 30.40232743 109.27931381 26.89453125 104.26171875 C24.34476193 99.01865006 24.19141163 93.99296122 24.89453125 88.26171875 C25.96303863 85.56257619 27.1968308 83.64911 28.89453125 81.26171875 C28.31703125 81.05546875 27.73953125 80.84921875 27.14453125 80.63671875 C22.35729487 77.71118541 20.18859255 72.5458024 18.89453125 67.26171875 C18.38367778 61.64233058 19.47371506 58.20421847 21.89453125 53.26171875 C20.90428955 53.29418701 19.91404785 53.32665527 18.89379883 53.36010742 C14.78114016 53.35565866 10.90296727 52.59956509 6.90625 51.6875 C6.1630098 51.52179001 5.41976959 51.35608002 4.65400696 51.18534851 C3.08917309 50.83361297 1.52522848 50.47789984 -0.0378418 50.1184082 C-2.39778153 49.57883433 -4.76184093 49.06128213 -7.12695312 48.54492188 C-19.42305109 45.78836611 -29.66703866 42.81509388 -37.35546875 32.13671875 C-40.6862149 26.66477865 -40.70518242 21.51587561 -40.10546875 15.26171875 C-37.99984181 7.82860197 -32.77491609 3.43754598 -26.33203125 -0.3828125 C-18.58993979 -3.63524075 -7.89490145 -2.68400464 0 0 Z " fill="#57575A" transform="translate(96.10546875,147.73828125)"/>
  <path d="M0 0 C0.75549133 0.17045334 1.51098267 0.34090668 2.28936768 0.51652527 C4.67944899 1.05799003 7.06622009 1.61268858 9.453125 2.16796875 C11.03625736 2.52887751 12.61958981 2.88890972 14.203125 3.24804688 C17.27617634 3.94619815 20.34670122 4.65419283 23.41577148 5.36962891 C26.14023858 6.0026309 28.8647889 6.60149213 31.60180664 7.18115234 C32.75543701 7.42816895 33.90906738 7.67518555 35.09765625 7.9296875 C36.09385986 8.13553467 37.09006348 8.34138184 38.11645508 8.5534668 C45.43078985 10.82129027 48.87850153 17.83476322 52.44140625 24.12109375 C54.24320522 28.73994684 54.94297611 33.47103875 55.703125 38.35546875 C40.08873308 35.55212587 24.56291537 32.33580854 9.06430054 28.95574951 C7.03851206 28.51534396 5.01183721 28.07899524 2.98428345 27.64678955 C0.09228891 27.0288772 -2.79586973 26.39534697 -5.68359375 25.7578125 C-6.54940063 25.57555618 -7.41520752 25.39329987 -8.30725098 25.20552063 C-14.4657228 23.81968235 -19.98421939 22.04113333 -24.234375 17.10546875 C-26.06718755 12.36171863 -26.0905519 8.23522984 -24.109375 3.54296875 C-17.76490624 -4.11414872 -8.71038286 -2.05971178 0 0 Z " fill="#FCFCFC" transform="translate(94.296875,158.64453125)"/>
  <path d="M0 0 C-0.73690113 6.48472993 -2.35318751 12.69239743 -4 19 C-13.9025788 18.37434687 -13.9025788 18.37434687 -18 15 C-20.51464223 11.98242933 -20.99187106 10.45522051 -21.0625 6.5 C-19.99673479 2.989244 -18.928696 1.01224207 -15.94921875 -1.1953125 C-10.94108573 -3.26279827 -5.03612102 -1.32285207 0 0 Z " fill="#F9FAFA" transform="translate(149,205)"/>
  <path d="M0 0 C-1.16554807 6.0509304 -2.45343096 12.03466226 -4 18 C-7.32050912 15.26057998 -8.85598224 13.80649943 -9.625 9.5 C-8.84922564 5.15566358 -7.38221335 3.73798224 -4 1 C-2 0 -2 0 0 0 Z " fill="#F6F7F9" transform="translate(143,233)"/>
  <path d="M0 0 C1.32 0 2.64 0 4 0 C4 2.64 4 5.28 4 8 C1.69 7.67 -0.62 7.34 -3 7 C-3 6.67 -3 6.34 -3 6 C-1.35 6 0.3 6 2 6 C2 4.35 2 2.7 2 1 C1.34 0.67 0.68 0.34 0 0 Z " fill="#555D65" transform="translate(146,197)"/>
</svg>